<svg id="Laag_1" data-name="Laag 1" xmlns="http://www.w3.org/2000/svg" viewBox="0 0 40.9 32.71"><defs><style>.cls-1{font-size:26.29px;font-family:RageItalic, "Rage Italic";}.cls-1,.cls-2{fill:#e94937;}</style></defs><text class="cls-1" transform="translate(3 21.93) scale(0.88 1)">fresh</text><path id="Icon_awesome-map-marker-alt-2" data-name="Icon awesome-map-marker-alt-2" class="cls-2" d="M51.53,61.63c-2.75-4.62-3.26-5.09-3.26-6.79a4,4,0,0,1,3.66-4.19,4,4,0,0,1,3.61,4.19,5,5,0,0,1-.9,2.86c-.47.82-1.22,2-2.36,3.93a.42.42,0,0,1-.63.14.41.41,0,0,1-.12-.14Zm.38-5a1.65,1.65,0,0,0,1.51-1.76A1.88,1.88,0,0,0,53,53.68a1.38,1.38,0,0,0-1.13-.59,1.78,1.78,0,0,0,0,3.51Z" transform="translate(-32.58 -50.65)"/></svg>